<svg width="1097.75px" height="226.4px" xmlns="http://www.w3.org/2000/svg" viewBox="-298.875 -38.2 1097.75 226.4" style="background: rgba(0, 0, 0, 0);" preserveAspectRatio="xMidYMid"><defs><linearGradient id="editing-shiny-gradient" x1="0.04322727117869957" x2="0.9567727288213004" y1="0.2966316784620999" y2="0.7033683215379001" gradientUnits="objectBoundingBox"><stop offset="0.0" stop-color="#ffb200"></stop><stop offset="0.5" stop-color="#e10057"></stop><stop offset="1.0" stop-color="#5A1A80"></stop></linearGradient><linearGradient id="editing-shiny-gradient2" x1="0" x2="0" y1="0" y2="1"><stop offset="0.2" stop-color="#fff" stop-opacity="0.8"></stop><stop offset="0.8" stop-color="#fff" stop-opacity="0"></stop></linearGradient><filter id="editing-shiny2" x="-100%" y="-100%" width="300%" height="300%"><feMorphology operator="erode" radius="2"></feMorphology></filter><filter id="editing-shiny" x="-100%" y="-100%" width="300%" height="300%"><feFlood flood-color="#fff" result="flood"></feFlood><feConvolveMatrix in="SourceGraphic" result="conv" order="8,8" divisor="1" kernelMatrix="0 0 0 0 0 0 0 0 0 0 0 1 1 0 0 0 0 0 0 1 1 0 0 0 0 0 1 0 0 1 0 0 0 0 1 0 0 1 0 0 0 1 0 0 0 0 1 0 0 1 1 0 0 1 1 0 0 0 0 1 1 0 0 0 "></feConvolveMatrix><feOffset dx="0" dy="4" in="conv" result="offset"></feOffset><feComposite operator="in" in="flood" in2="offset" result="comp"></feComposite><feGaussianBlur in="offset" stdDeviation="3" result="shadow"></feGaussianBlur><feColorMatrix in="shadow" type="matrix" values="0.7 0 0 0 0  0 0.7 0 0 0  0 0 0.7 0 0  0 0 0 0.3 0" result="dark-shadow"></feColorMatrix><feOffset dx="0" dy="4" in="dark-shadow" result="offset-shadow"></feOffset><feOffset dx="0" dy="2" in="conv" result="offset-2"></feOffset><feComposite operator="out" in="offset" in2="offset-2" result="edge-diff"></feComposite><feGaussianBlur in="edge-diff" stdDeviation="1" result="edge-blur"></feGaussianBlur><feColorMatrix in="edge-blur" result="edge-shadow" type="matrix" values="0 0 0 0 0  0 0 0 0 0  0 0 0 0 0  0 0 0 0.5 0"></feColorMatrix><feComposite operator="in" in="edge-shadow" in2="offset" result="edge-shadow-in"></feComposite><feOffset dx="0" dy="1" in="edge-shadow-in" result="edge-shadow-final"></feOffset><feMerge result="out"><feMergeNode in="offset-shadow"></feMergeNode><feMergeNode in="comp"></feMergeNode><feMergeNode in="edge-shadow-final"></feMergeNode><feMergeNode in="SourceGraphic"></feMergeNode></feMerge></filter></defs><g filter="url(#editing-shiny)"><g transform="translate(-149.0350160598755, 126.28500163555145)"><path d="M12.61-63.31L12.61-63.31L12.61-63.31Q8.19-66.69 8.19-73.91L8.19-73.91L8.19-73.91Q8.19-81.12 12.94-84.89L12.94-84.89L12.94-84.89Q17.68-88.66 25.87-88.66L25.87-88.66L25.87-88.66Q31.07-88.66 43.42-86.84L43.42-86.84L52.26-85.54L52.26-85.54Q56.68-85.02 61.30-85.02L61.30-85.02L61.30-85.02Q65.91-85.02 69.03-86.97L69.03-86.97L69.03-86.97Q73.71-82.81 73.71-76.83L73.71-76.83L73.71-76.83Q73.71-70.85 68.38-66.56L68.38-66.56L68.38-66.56Q62.92-62.01 55.90-62.01L55.90-62.01L55.90-62.01Q52.52-62.01 47.06-62.92L47.06-62.92L47.06-62.92Q40.69-42.90 40.69-28.99L40.69-28.99L40.69-28.99Q40.69-15.08 47.71-7.80L47.71-7.80L47.71-7.80Q44.46-1.95 39.65 0.33L39.65 0.33L39.65 0.33Q34.84 2.60 27.63 2.60L27.63 2.60L27.63 2.60Q20.41 2.60 15.93-1.36L15.93-1.36L15.93-1.36Q11.44-5.33 11.44-13.52L11.44-13.52L11.44-13.52Q11.44-23.01 16.64-38.61L16.64-38.61L16.64-38.61Q21.84-54.08 29.64-65.91L29.64-65.91L29.64-65.91Q25.87-66.30 21.97-66.30L21.97-66.30L21.97-66.30Q13.91-66.30 12.61-63.31ZM69.22-3.90L69.22-3.90L69.22-3.90Q66.17-7.28 64.81-12.61L64.81-12.61L64.81-12.61Q63.44-17.94 63.44-26.65L63.44-26.65L63.44-26.65Q63.44-35.36 66.43-43.29L66.43-43.29L66.43-43.29Q69.42-51.22 74.88-56.94L74.88-56.94L74.88-56.94Q86.06-68.90 104.52-68.90L104.52-68.90L104.52-68.90Q111.15-68.90 115.96-66.69L115.96-66.69L138.19-68.90L128.57-18.20L128.57-18.20Q128.18-16.64 128.18-13.78L128.18-13.78L128.18-13.78Q128.18-10.92 129.94-9.10L129.94-9.10L129.94-9.10Q131.69-7.28 134.29-7.02L134.29-7.02L134.29-7.02Q132.99-2.60 128.25 0L128.25 0L128.25 0Q123.50 2.60 118.17 2.60L118.17 2.60L118.17 2.60Q112.84 2.60 109.27 0.58L109.27 0.58L109.27 0.58Q105.69-1.43 104.65-4.81L104.65-4.81L104.65-4.81Q102.57-1.56 98.15 0.52L98.15 0.52L98.15 0.52Q93.73 2.60 87.81 2.60L87.81 2.60L87.81 2.60Q81.90 2.60 77.09 1.04L77.09 1.04L77.09 1.04Q72.28-0.52 69.22-3.90ZM96.66-56.68L96.66-56.68L96.66-56.68Q95.16-54.34 93.86-50.38L93.86-50.38L93.86-50.38Q92.56-46.41 90.41-35.81L90.41-35.81L90.41-35.81Q88.27-25.22 88.27-17.68L88.27-17.68L88.27-17.68Q88.27-10.14 89.44-7.93L89.44-7.93L89.44-7.93Q90.61-5.72 92.69-5.72L92.69-5.72L92.69-5.72Q96.85-5.72 99.91-9.69L99.91-9.69L99.91-9.69Q102.96-13.65 104.13-20.67L104.13-20.67L111.02-58.76L111.02-58.76Q108.29-61.10 105.11-61.10L105.11-61.10L105.11-61.10Q101.92-61.10 100.03-60.06L100.03-60.06L100.03-60.06Q98.15-59.02 96.66-56.68ZM90.35-75.01L86.06-83.07L111.41-99.97L131.30-82.94L124.80-75.01L109.59-84.37L90.35-75.01ZM200.20 2.60L200.20 2.60L200.20 2.60Q184.47 2.60 184.47-9.62L184.47-9.62L184.47-9.62Q184.60-13 185.64-18.72L185.64-18.72L187.98-30.68L187.98-30.68Q191.49-47.58 191.49-51.35L191.49-51.35L191.49-51.35Q191.49-58.89 187.07-58.89L187.07-58.89L187.07-58.89Q179.66-58.89 175.76-39.52L175.76-39.52L168.09 0L141.96 2.60L155.48-66.43L176.80-68.90L174.72-56.16L174.72-56.16Q180.83-68.90 199.55-68.90L199.55-68.90L199.55-68.90Q208.65-68.90 212.49-65.06L212.49-65.06L212.49-65.06Q216.32-61.23 216.32-52.65L216.32-52.65L216.32-52.65Q216.32-44.59 212.16-25.74L212.16-25.74L212.16-25.74Q210.21-17.29 210.21-14.11L210.21-14.11L210.21-14.11Q210.21-10.92 211.97-9.10L211.97-9.10L211.97-9.10Q213.72-7.28 216.32-7.02L216.32-7.02L216.32-7.02Q215.02-2.60 210.53 0L210.53 0L210.53 0Q206.05 2.60 200.20 2.60ZM257.92-7.15L257.92-7.15L257.92-7.15Q253.89 2.60 241.02 2.60L241.02 2.60L241.02 2.60Q234.39 2.60 230.23-1.95L230.23-1.95L230.23-1.95Q226.72-5.98 226.72-10.01L226.72-10.01L226.72-10.01Q226.72-20.54 231.53-41.08L231.53-41.08L236.34-66.30L262.73-68.90L254.80-27.82L254.80-27.82Q252.59-18.20 252.59-14.82L252.59-14.82L252.59-14.82Q252.59-7.41 257.92-7.15ZM238.68-84.37L238.68-84.37L238.68-84.37Q238.68-89.44 242.91-92.17L242.91-92.17L242.91-92.17Q247.13-94.90 253.24-94.90L253.24-94.90L253.24-94.90Q259.35-94.90 263.06-92.17L263.06-92.17L263.06-92.17Q266.76-89.44 266.76-84.37L266.76-84.37L266.76-84.37Q266.76-79.30 262.66-76.70L262.66-76.70L262.66-76.70Q258.57-74.10 252.46-74.10L252.46-74.10L252.46-74.10Q246.35-74.10 242.51-76.70L242.51-76.70L242.51-76.70Q238.68-79.30 238.68-84.37ZM274.63-3.90L274.63-3.90L274.63-3.90Q271.57-7.28 270.20-12.61L270.20-12.61L270.20-12.61Q268.84-17.94 268.84-26.65L268.84-26.65L268.84-26.65Q268.84-35.36 271.83-43.29L271.83-43.29L271.83-43.29Q274.82-51.22 280.28-56.94L280.28-56.94L280.28-56.94Q291.46-68.90 309.92-68.90L309.92-68.90L309.92-68.90Q316.55-68.90 321.36-66.69L321.36-66.69L343.59-68.90L333.97-18.20L333.97-18.20Q333.58-16.64 333.58-13.78L333.58-13.78L333.58-13.78Q333.58-10.92 335.33-9.10L335.33-9.10L335.33-9.10Q337.09-7.28 339.69-7.02L339.69-7.02L339.69-7.02Q338.39-2.60 333.64 0L333.64 0L333.64 0Q328.90 2.60 323.57 2.60L323.57 2.60L323.57 2.60Q318.24 2.60 314.66 0.58L314.66 0.58L314.66 0.58Q311.09-1.43 310.05-4.81L310.05-4.81L310.05-4.81Q307.97-1.56 303.55 0.52L303.55 0.52L303.55 0.52Q299.13 2.60 293.21 2.60L293.21 2.60L293.21 2.60Q287.30 2.60 282.49 1.04L282.49 1.04L282.49 1.04Q277.68-0.52 274.63-3.90ZM302.06-56.68L302.06-56.68L302.06-56.68Q300.56-54.34 299.26-50.38L299.26-50.38L299.26-50.38Q297.96-46.41 295.81-35.81L295.81-35.81L295.81-35.81Q293.67-25.22 293.67-17.68L293.67-17.68L293.67-17.68Q293.67-10.14 294.84-7.93L294.84-7.93L294.84-7.93Q296.01-5.72 298.09-5.72L298.09-5.72L298.09-5.72Q302.25-5.72 305.31-9.69L305.31-9.69L305.31-9.69Q308.36-13.65 309.53-20.67L309.53-20.67L316.42-58.76L316.42-58.76Q313.69-61.10 310.50-61.10L310.50-61.10L310.50-61.10Q307.32-61.10 305.44-60.06L305.44-60.06L305.44-60.06Q303.55-59.02 302.06-56.68ZM388.44 0L373.49 0L397.02-85.80L424.19-85.80L430.17-36.79L454.35-85.80L477.10-85.80L479.44-21.58L479.44-21.58Q479.96-8.84 486.20-4.94L486.20-4.94L486.20-4.94Q484.77-2.34 480.61 0.13L480.61 0.13L480.61 0.13Q476.45 2.60 470.92 2.60L470.92 2.60L470.92 2.60Q465.40 2.60 462.15 1.04L462.15 1.04L462.15 1.04Q458.90-0.52 457.08-3.12L457.08-3.12L457.08-3.12Q453.83-7.80 453.83-16.77L453.83-16.77L453.83-56.94L428.22 0L412.10 0L403.00-58.37L388.44 0ZM520.13 2.60L520.13 2.60L520.13 2.60Q491.53 2.60 491.53-24.31L491.53-24.31L491.53-24.31Q491.53-43.42 502.06-55.77L502.06-55.77L502.06-55.77Q513.24-68.90 532.61-68.90L532.61-68.90L532.61-68.90Q546.65-68.90 553.80-62.40L553.80-62.40L553.80-62.40Q560.95-55.90 560.95-42.25L560.95-42.25L560.95-42.25Q560.95-21.45 549.77-9.36L549.77-9.36L549.77-9.36Q538.85 2.60 520.13 2.60ZM523.51-53.95L523.51-53.95L523.51-53.95Q521.95-50.44 520.71-45.18L520.71-45.18L520.71-45.18Q519.48-39.91 517.92-31.59L517.92-31.59L517.92-31.59Q516.36-23.27 516.36-13L516.36-13L516.36-13Q516.36-9.62 517.46-7.41L517.46-7.41L517.46-7.41Q518.57-5.20 521.56-5.20L521.56-5.20L521.56-5.20Q524.55-5.20 526.43-6.63L526.43-6.63L526.43-6.63Q528.32-8.06 529.75-11.44L529.75-11.44L529.75-11.44Q532.35-17.42 534.43-28.54L534.43-28.54L534.43-28.54Q536.51-39.65 536.70-44.46L536.70-44.46L536.70-44.46Q536.90-49.27 536.90-52.84L536.90-52.84L536.90-52.84Q536.90-56.42 535.86-58.76L535.86-58.76L535.86-58.76Q534.82-61.10 531.89-61.10L531.89-61.10L531.89-61.10Q528.97-61.10 527.02-59.28L527.02-59.28L527.02-59.28Q525.07-57.46 523.51-53.95ZM609.57-68.90L609.57-68.90L609.57-68.90Q614.25-68.90 617.89-67.86L617.89-67.86L617.89-67.86Q618.02-68.38 618.28-69.81L618.28-69.81L618.93-73.84L618.93-73.84Q619.45-76.44 620.23-80.73L620.23-80.73L622.31-91L648.18-93.60L633.75-18.20L633.75-18.20Q633.62-17.42 633.62-16.12L633.62-16.12L633.62-14.04L633.62-14.04Q633.62-11.18 635.05-9.04L635.05-9.04L635.05-9.04Q636.48-6.89 638.82-6.89L638.82-6.89L638.82-6.89Q636.22-0.78 628.29 1.82L628.29 1.82L628.29 1.82Q625.56 2.60 621.73 2.60L621.73 2.60L621.73 2.60Q617.89 2.60 614.38 0.58L614.38 0.58L614.38 0.58Q610.87-1.43 609.83-4.81L609.83-4.81L609.83-4.81Q607.75-1.43 603.59 0.58L603.59 0.58L603.59 0.58Q599.43 2.60 593.38 2.60L593.38 2.60L593.38 2.60Q587.34 2.60 582.33 1.04L582.33 1.04L582.33 1.04Q577.33-0.52 574.21-3.90L574.21-3.90L574.21-3.90Q568.49-10.53 568.49-25.61L568.49-25.61L568.49-25.61Q568.49-45.11 579.93-56.94L579.93-56.94L579.93-56.94Q591.37-68.90 609.57-68.90ZM608.66-61.10L608.66-61.10L608.66-61.10Q603.85-61.10 601.25-55.90L601.25-55.90L601.25-55.90Q598.65-50.70 595.99-37.83L595.99-37.83L595.99-37.83Q593.32-24.96 593.32-13.39L593.32-13.39L593.32-13.39Q593.32-5.46 598-5.46L598-5.46L598-5.46Q602.16-5.46 605.08-9.62L605.08-9.62L605.08-9.62Q608.01-13.78 609.18-20.67L609.18-20.67L616.20-58.76L616.20-58.76Q613.47-61.10 608.66-61.10ZM655.52-3.90L655.52-3.90L655.52-3.90Q652.47-7.28 651.11-12.61L651.11-12.61L651.11-12.61Q649.74-17.94 649.74-26.65L649.74-26.65L649.74-26.65Q649.74-35.36 652.73-43.29L652.73-43.29L652.73-43.29Q655.72-51.22 661.18-56.94L661.18-56.94L661.18-56.94Q672.36-68.90 690.82-68.90L690.82-68.90L690.82-68.90Q697.45-68.90 702.26-66.69L702.26-66.69L724.49-68.90L714.87-18.20L714.87-18.20Q714.48-16.64 714.48-13.78L714.48-13.78L714.48-13.78Q714.48-10.92 716.24-9.10L716.24-9.10L716.24-9.10Q717.99-7.28 720.59-7.02L720.59-7.02L720.59-7.02Q719.29-2.60 714.54 0L714.54 0L714.54 0Q709.80 2.60 704.47 2.60L704.47 2.60L704.47 2.60Q699.14 2.60 695.56 0.58L695.56 0.58L695.56 0.58Q691.99-1.43 690.95-4.81L690.95-4.81L690.95-4.81Q688.87-1.56 684.45 0.52L684.45 0.52L684.45 0.52Q680.03 2.60 674.12 2.60L674.12 2.60L674.12 2.60Q668.20 2.60 663.39 1.04L663.39 1.04L663.39 1.04Q658.58-0.52 655.52-3.90ZM682.95-56.68L682.95-56.68L682.95-56.68Q681.46-54.34 680.16-50.38L680.16-50.38L680.16-50.38Q678.86-46.41 676.71-35.81L676.71-35.81L676.71-35.81Q674.57-25.22 674.57-17.68L674.57-17.68L674.57-17.68Q674.57-10.14 675.74-7.93L675.74-7.93L675.74-7.93Q676.91-5.72 678.99-5.72L678.99-5.72L678.99-5.72Q683.15-5.72 686.20-9.69L686.20-9.69L686.20-9.69Q689.26-13.65 690.43-20.67L690.43-20.67L697.32-58.76L697.32-58.76Q694.59-61.10 691.40-61.10L691.40-61.10L691.40-61.10Q688.22-61.10 686.33-60.06L686.33-60.06L686.33-60.06Q684.45-59.02 682.95-56.68ZM770.38-45.63L770.38-45.63L770.38-45.63Q772.20-50.44 772.20-54.60L772.20-54.60L772.20-54.60Q772.20-62.27 765.96-62.27L765.96-62.27L765.96-62.27Q762.71-62.27 760.04-59.34L760.04-59.34L760.04-59.34Q757.38-56.42 757.38-52.78L757.38-52.78L757.38-52.78Q757.38-50.18 759.46-48.10L759.46-48.10L759.46-48.10Q762.45-45.24 770.12-40.56L770.12-40.56L770.12-40.56Q777.79-35.88 780.71-32.05L780.71-32.05L780.71-32.05Q783.64-28.21 783.64-22.95L783.64-22.95L783.64-22.95Q783.64-17.68 781.10-12.87L781.10-12.87L781.10-12.87Q778.57-8.06 774.02-4.68L774.02-4.68L774.02-4.68Q764.27 2.60 748.67 2.60L748.67 2.60L748.67 2.60Q740.22 2.60 733.72-1.82L733.72-1.82L733.72-1.82Q727.22-6.11 727.22-11.18L727.22-11.18L727.22-11.18Q727.22-16.25 730.92-19.24L730.92-19.24L730.92-19.24Q734.63-22.23 740.09-22.23L740.09-22.23L740.09-22.23Q745.55-22.23 748.93-20.15L748.93-20.15L748.93-20.15Q747.24-15.86 747.24-13L747.24-13L747.24-13Q747.24-4.42 754.52-4.42L754.52-4.42L754.52-4.42Q757.64-4.42 759.72-6.37L759.72-6.37L759.72-6.37Q761.80-8.32 761.80-11.70L761.80-11.70L761.80-11.70Q761.80-18.33 750.62-25.35L750.62-25.35L750.62-25.35Q741.52-31.33 739.44-33.67L739.44-33.67L739.44-33.67Q735.93-37.83 735.93-43.03L735.93-43.03L735.93-43.03Q735.93-48.23 738.40-53.17L738.40-53.17L738.40-53.17Q740.87-58.11 745.42-61.62L745.42-61.62L745.42-61.62Q754.91-68.90 771.42-68.90L771.42-68.90L771.42-68.90Q779.87-68.90 784.88-65.52L784.88-65.52L784.88-65.52Q789.88-62.14 789.88-56.42L789.88-56.42L789.88-56.42Q789.88-50.70 786.43-47.45L786.43-47.45L786.43-47.45Q782.99-44.20 776.75-44.20L776.75-44.20L776.75-44.20Q772.46-44.20 770.38-45.63Z" fill="url(#editing-shiny-gradient)"></path></g></g><g filter="url(#editing-shiny2)"><g transform="translate(-149.0349702835083, 126.284996509552)"><path d="M12.61-63.31L12.61-63.31L12.61-63.31Q8.19-66.69 8.19-73.91L8.19-73.91L8.19-73.91Q8.19-81.12 12.94-84.89L12.94-84.89L12.94-84.89Q17.68-88.66 25.87-88.66L25.87-88.66L25.87-88.66Q31.07-88.66 43.42-86.84L43.42-86.84L52.26-85.54L52.26-85.54Q56.68-85.02 61.30-85.02L61.30-85.02L61.30-85.02Q65.91-85.02 69.03-86.97L69.03-86.97L69.03-86.97Q73.71-82.81 73.71-76.83L73.71-76.83L73.71-76.83Q73.71-70.85 68.38-66.56L68.38-66.56L68.38-66.56Q62.92-62.01 55.90-62.01L55.90-62.01L55.90-62.01Q52.52-62.01 47.06-62.92L47.06-62.92L47.06-62.92Q40.69-42.90 40.69-28.99L40.69-28.99L40.69-28.99Q40.69-15.08 47.71-7.80L47.71-7.80L47.71-7.80Q44.46-1.95 39.65 0.33L39.65 0.33L39.65 0.33Q34.84 2.60 27.63 2.60L27.63 2.60L27.63 2.60Q20.41 2.60 15.93-1.36L15.93-1.36L15.93-1.36Q11.44-5.33 11.44-13.52L11.44-13.52L11.44-13.52Q11.44-23.01 16.64-38.61L16.64-38.61L16.64-38.61Q21.84-54.08 29.64-65.91L29.64-65.91L29.64-65.91Q25.87-66.30 21.97-66.30L21.97-66.30L21.97-66.30Q13.91-66.30 12.61-63.31ZM69.22-3.90L69.22-3.90L69.22-3.90Q66.17-7.28 64.81-12.61L64.81-12.61L64.81-12.61Q63.44-17.94 63.44-26.65L63.44-26.65L63.44-26.65Q63.44-35.36 66.43-43.29L66.43-43.29L66.43-43.29Q69.42-51.22 74.88-56.94L74.88-56.94L74.88-56.94Q86.06-68.90 104.52-68.90L104.52-68.90L104.52-68.90Q111.15-68.90 115.96-66.69L115.96-66.69L138.19-68.90L128.57-18.20L128.57-18.20Q128.18-16.64 128.18-13.78L128.18-13.78L128.18-13.78Q128.18-10.92 129.94-9.10L129.94-9.10L129.94-9.10Q131.69-7.28 134.29-7.02L134.29-7.02L134.29-7.02Q132.99-2.60 128.25 0L128.25 0L128.25 0Q123.50 2.60 118.17 2.60L118.17 2.60L118.17 2.60Q112.84 2.60 109.27 0.58L109.27 0.58L109.27 0.58Q105.69-1.43 104.65-4.81L104.65-4.81L104.65-4.81Q102.57-1.56 98.15 0.52L98.15 0.52L98.15 0.52Q93.73 2.60 87.81 2.60L87.81 2.60L87.81 2.60Q81.90 2.60 77.09 1.04L77.09 1.04L77.09 1.04Q72.28-0.52 69.22-3.90ZM96.66-56.68L96.66-56.68L96.66-56.68Q95.16-54.34 93.86-50.38L93.86-50.38L93.86-50.38Q92.56-46.41 90.41-35.81L90.41-35.81L90.41-35.81Q88.27-25.22 88.27-17.68L88.27-17.68L88.27-17.68Q88.27-10.14 89.44-7.93L89.44-7.93L89.44-7.93Q90.61-5.72 92.69-5.72L92.69-5.72L92.69-5.72Q96.85-5.72 99.91-9.69L99.91-9.69L99.91-9.69Q102.96-13.65 104.13-20.67L104.13-20.67L111.02-58.76L111.02-58.76Q108.29-61.10 105.11-61.10L105.11-61.10L105.11-61.10Q101.92-61.10 100.03-60.06L100.03-60.06L100.03-60.06Q98.15-59.02 96.66-56.68ZM90.35-75.01L86.06-83.07L111.41-99.97L131.30-82.94L124.80-75.01L109.59-84.37L90.35-75.01ZM200.20 2.60L200.20 2.60L200.20 2.60Q184.47 2.60 184.47-9.62L184.47-9.62L184.47-9.62Q184.60-13 185.64-18.72L185.64-18.72L187.98-30.68L187.98-30.68Q191.49-47.58 191.49-51.35L191.49-51.35L191.49-51.35Q191.49-58.89 187.07-58.89L187.07-58.89L187.07-58.89Q179.66-58.89 175.76-39.52L175.76-39.52L168.09 0L141.96 2.60L155.48-66.43L176.80-68.90L174.72-56.16L174.72-56.16Q180.83-68.90 199.55-68.90L199.55-68.90L199.55-68.90Q208.65-68.90 212.49-65.06L212.49-65.06L212.49-65.06Q216.32-61.23 216.32-52.65L216.32-52.65L216.32-52.65Q216.32-44.59 212.16-25.74L212.16-25.74L212.16-25.74Q210.21-17.29 210.21-14.11L210.21-14.11L210.21-14.11Q210.21-10.92 211.97-9.10L211.97-9.10L211.97-9.10Q213.72-7.28 216.32-7.02L216.32-7.02L216.32-7.02Q215.02-2.60 210.53 0L210.53 0L210.53 0Q206.05 2.60 200.20 2.60ZM257.92-7.15L257.92-7.15L257.92-7.15Q253.89 2.60 241.02 2.60L241.02 2.60L241.02 2.60Q234.39 2.60 230.23-1.95L230.23-1.95L230.23-1.95Q226.72-5.98 226.72-10.01L226.72-10.01L226.72-10.01Q226.72-20.54 231.53-41.08L231.53-41.08L236.34-66.30L262.73-68.90L254.80-27.82L254.80-27.82Q252.59-18.20 252.59-14.82L252.59-14.82L252.59-14.82Q252.59-7.41 257.92-7.15ZM238.68-84.37L238.68-84.37L238.68-84.37Q238.68-89.44 242.91-92.17L242.91-92.17L242.91-92.17Q247.13-94.90 253.24-94.90L253.24-94.90L253.24-94.90Q259.35-94.90 263.06-92.17L263.06-92.17L263.06-92.17Q266.76-89.44 266.76-84.37L266.76-84.37L266.76-84.37Q266.76-79.30 262.66-76.70L262.66-76.70L262.66-76.70Q258.57-74.10 252.46-74.10L252.46-74.10L252.46-74.10Q246.35-74.10 242.51-76.70L242.51-76.70L242.51-76.70Q238.68-79.30 238.68-84.37ZM274.63-3.90L274.63-3.90L274.63-3.90Q271.57-7.28 270.20-12.61L270.20-12.61L270.20-12.61Q268.84-17.94 268.84-26.65L268.84-26.65L268.84-26.65Q268.84-35.36 271.83-43.29L271.83-43.29L271.83-43.29Q274.82-51.22 280.28-56.94L280.28-56.94L280.28-56.94Q291.46-68.90 309.92-68.90L309.92-68.90L309.92-68.90Q316.55-68.90 321.36-66.69L321.36-66.69L343.59-68.90L333.97-18.20L333.97-18.20Q333.58-16.64 333.58-13.78L333.58-13.78L333.58-13.78Q333.58-10.92 335.33-9.10L335.33-9.10L335.33-9.10Q337.09-7.28 339.69-7.02L339.69-7.02L339.69-7.02Q338.39-2.60 333.64 0L333.64 0L333.64 0Q328.90 2.60 323.57 2.60L323.57 2.60L323.57 2.60Q318.24 2.60 314.66 0.58L314.66 0.58L314.66 0.58Q311.09-1.43 310.05-4.81L310.05-4.81L310.05-4.81Q307.97-1.56 303.55 0.52L303.55 0.52L303.55 0.52Q299.13 2.60 293.21 2.60L293.21 2.60L293.21 2.60Q287.30 2.60 282.49 1.04L282.49 1.04L282.49 1.04Q277.68-0.52 274.63-3.90ZM302.06-56.68L302.06-56.68L302.06-56.68Q300.56-54.34 299.26-50.38L299.26-50.38L299.26-50.38Q297.96-46.41 295.81-35.81L295.81-35.81L295.81-35.81Q293.67-25.22 293.67-17.68L293.67-17.68L293.67-17.68Q293.67-10.14 294.84-7.93L294.84-7.93L294.84-7.93Q296.01-5.72 298.09-5.72L298.09-5.72L298.09-5.72Q302.25-5.72 305.31-9.69L305.31-9.69L305.31-9.69Q308.36-13.65 309.53-20.67L309.53-20.67L316.42-58.76L316.42-58.76Q313.69-61.10 310.50-61.10L310.50-61.10L310.50-61.10Q307.32-61.10 305.44-60.06L305.44-60.06L305.44-60.06Q303.55-59.02 302.06-56.68ZM388.44 0L373.49 0L397.02-85.80L424.19-85.80L430.17-36.79L454.35-85.80L477.10-85.80L479.44-21.58L479.44-21.58Q479.96-8.84 486.20-4.94L486.20-4.94L486.20-4.94Q484.77-2.34 480.61 0.13L480.61 0.13L480.61 0.13Q476.45 2.60 470.92 2.60L470.92 2.60L470.92 2.60Q465.40 2.60 462.15 1.04L462.15 1.04L462.15 1.04Q458.90-0.52 457.08-3.12L457.08-3.12L457.08-3.12Q453.83-7.80 453.83-16.77L453.83-16.77L453.83-56.94L428.22 0L412.10 0L403.00-58.37L388.44 0ZM520.13 2.60L520.13 2.60L520.13 2.60Q491.53 2.60 491.53-24.31L491.53-24.31L491.53-24.31Q491.53-43.42 502.06-55.77L502.06-55.77L502.06-55.77Q513.24-68.90 532.61-68.90L532.61-68.90L532.61-68.90Q546.65-68.90 553.80-62.40L553.80-62.40L553.80-62.40Q560.95-55.90 560.95-42.25L560.95-42.25L560.95-42.25Q560.95-21.45 549.77-9.36L549.77-9.36L549.77-9.36Q538.85 2.60 520.13 2.60ZM523.51-53.95L523.51-53.95L523.51-53.95Q521.95-50.44 520.71-45.18L520.71-45.18L520.71-45.18Q519.48-39.91 517.92-31.59L517.92-31.59L517.92-31.59Q516.36-23.27 516.36-13L516.36-13L516.36-13Q516.36-9.62 517.46-7.41L517.46-7.41L517.46-7.41Q518.57-5.20 521.56-5.20L521.56-5.20L521.56-5.20Q524.55-5.20 526.43-6.63L526.43-6.63L526.43-6.63Q528.32-8.06 529.75-11.44L529.75-11.44L529.75-11.44Q532.35-17.42 534.43-28.54L534.43-28.54L534.43-28.54Q536.51-39.65 536.70-44.46L536.70-44.46L536.70-44.46Q536.90-49.27 536.90-52.84L536.90-52.84L536.90-52.84Q536.90-56.42 535.86-58.76L535.86-58.76L535.86-58.76Q534.82-61.10 531.89-61.10L531.89-61.10L531.89-61.10Q528.97-61.10 527.02-59.28L527.02-59.28L527.02-59.28Q525.07-57.46 523.51-53.95ZM609.57-68.90L609.57-68.90L609.57-68.90Q614.25-68.90 617.89-67.86L617.89-67.86L617.89-67.86Q618.02-68.38 618.28-69.81L618.28-69.81L618.93-73.84L618.93-73.84Q619.45-76.44 620.23-80.73L620.23-80.73L622.31-91L648.18-93.60L633.75-18.20L633.75-18.20Q633.62-17.42 633.62-16.12L633.62-16.12L633.62-14.04L633.62-14.04Q633.62-11.18 635.05-9.04L635.05-9.04L635.05-9.04Q636.48-6.89 638.82-6.89L638.82-6.89L638.82-6.89Q636.22-0.78 628.29 1.82L628.29 1.82L628.29 1.82Q625.56 2.60 621.73 2.60L621.73 2.60L621.73 2.60Q617.89 2.60 614.38 0.58L614.38 0.58L614.38 0.58Q610.87-1.43 609.83-4.81L609.83-4.81L609.83-4.81Q607.75-1.43 603.59 0.58L603.59 0.58L603.59 0.58Q599.43 2.60 593.38 2.60L593.38 2.60L593.38 2.60Q587.34 2.60 582.33 1.04L582.33 1.04L582.33 1.04Q577.33-0.52 574.21-3.90L574.21-3.90L574.21-3.90Q568.49-10.53 568.49-25.61L568.49-25.61L568.49-25.61Q568.49-45.11 579.93-56.94L579.93-56.94L579.93-56.94Q591.37-68.90 609.57-68.90ZM608.66-61.10L608.66-61.10L608.66-61.10Q603.85-61.10 601.25-55.90L601.25-55.90L601.25-55.90Q598.65-50.70 595.99-37.83L595.99-37.83L595.99-37.83Q593.32-24.96 593.32-13.39L593.32-13.39L593.32-13.39Q593.32-5.46 598-5.46L598-5.46L598-5.46Q602.16-5.46 605.08-9.62L605.08-9.62L605.08-9.62Q608.01-13.78 609.18-20.67L609.18-20.67L616.20-58.76L616.20-58.76Q613.47-61.10 608.66-61.10ZM655.52-3.90L655.52-3.90L655.52-3.90Q652.47-7.28 651.11-12.61L651.11-12.61L651.11-12.61Q649.74-17.94 649.74-26.65L649.74-26.65L649.74-26.65Q649.74-35.36 652.73-43.29L652.73-43.29L652.73-43.29Q655.72-51.22 661.18-56.94L661.18-56.94L661.18-56.94Q672.36-68.90 690.82-68.90L690.82-68.90L690.82-68.90Q697.45-68.90 702.26-66.69L702.26-66.69L724.49-68.90L714.87-18.20L714.87-18.20Q714.48-16.64 714.48-13.78L714.48-13.78L714.48-13.78Q714.48-10.92 716.24-9.10L716.24-9.10L716.24-9.10Q717.99-7.28 720.59-7.02L720.59-7.02L720.59-7.02Q719.29-2.60 714.54 0L714.54 0L714.54 0Q709.80 2.60 704.47 2.60L704.47 2.60L704.47 2.60Q699.14 2.60 695.56 0.58L695.56 0.58L695.56 0.58Q691.99-1.43 690.95-4.81L690.95-4.81L690.95-4.81Q688.87-1.56 684.45 0.52L684.45 0.52L684.45 0.52Q680.03 2.60 674.12 2.60L674.12 2.60L674.12 2.60Q668.20 2.60 663.39 1.04L663.39 1.04L663.39 1.04Q658.58-0.52 655.52-3.90ZM682.95-56.68L682.95-56.68L682.95-56.68Q681.46-54.34 680.16-50.38L680.16-50.38L680.16-50.38Q678.86-46.41 676.71-35.81L676.71-35.81L676.71-35.81Q674.57-25.22 674.57-17.68L674.57-17.68L674.57-17.68Q674.57-10.14 675.74-7.93L675.74-7.93L675.74-7.93Q676.91-5.72 678.99-5.72L678.99-5.72L678.99-5.72Q683.15-5.72 686.20-9.69L686.20-9.69L686.20-9.69Q689.26-13.65 690.43-20.67L690.43-20.67L697.32-58.76L697.32-58.76Q694.59-61.10 691.40-61.10L691.40-61.10L691.40-61.10Q688.22-61.10 686.33-60.06L686.33-60.06L686.33-60.06Q684.45-59.02 682.95-56.68ZM770.38-45.63L770.38-45.63L770.38-45.63Q772.20-50.44 772.20-54.60L772.20-54.60L772.20-54.60Q772.20-62.27 765.96-62.27L765.96-62.27L765.96-62.27Q762.71-62.27 760.04-59.34L760.04-59.34L760.04-59.34Q757.38-56.42 757.38-52.78L757.38-52.78L757.38-52.78Q757.38-50.18 759.46-48.10L759.46-48.10L759.46-48.10Q762.45-45.24 770.12-40.56L770.12-40.56L770.12-40.56Q777.79-35.88 780.71-32.05L780.71-32.05L780.71-32.05Q783.64-28.21 783.64-22.95L783.64-22.95L783.64-22.95Q783.64-17.68 781.10-12.87L781.10-12.87L781.10-12.87Q778.57-8.06 774.02-4.68L774.02-4.68L774.02-4.68Q764.27 2.60 748.67 2.60L748.67 2.60L748.67 2.60Q740.22 2.60 733.72-1.82L733.72-1.82L733.72-1.82Q727.22-6.11 727.22-11.18L727.22-11.18L727.22-11.18Q727.22-16.25 730.92-19.24L730.92-19.24L730.92-19.24Q734.63-22.23 740.09-22.23L740.09-22.23L740.09-22.23Q745.55-22.23 748.93-20.15L748.93-20.15L748.93-20.15Q747.24-15.86 747.24-13L747.24-13L747.24-13Q747.24-4.42 754.52-4.42L754.52-4.42L754.52-4.42Q757.64-4.42 759.72-6.37L759.72-6.37L759.72-6.37Q761.80-8.32 761.80-11.70L761.80-11.70L761.80-11.70Q761.80-18.33 750.62-25.35L750.62-25.35L750.62-25.35Q741.52-31.33 739.44-33.67L739.44-33.67L739.44-33.67Q735.93-37.83 735.93-43.03L735.93-43.03L735.93-43.03Q735.93-48.23 738.40-53.17L738.40-53.17L738.40-53.17Q740.87-58.11 745.42-61.62L745.42-61.62L745.42-61.62Q754.91-68.90 771.42-68.90L771.42-68.90L771.42-68.90Q779.87-68.90 784.88-65.52L784.88-65.52L784.88-65.52Q789.88-62.14 789.88-56.42L789.88-56.42L789.88-56.42Q789.88-50.70 786.43-47.45L786.43-47.45L786.43-47.45Q782.99-44.20 776.75-44.20L776.75-44.20L776.75-44.20Q772.46-44.20 770.38-45.63Z" fill="url(#editing-shiny-gradient2)"></path></g></g><style>text {
  font-size: 64px;
  font-family: Arial Black;
  dominant-baseline: central;
  text-anchor: middle;
}</style></svg>